<svg width="393" height="852" viewBox="0 0 393 852" fill="none" xmlns="http://www.w3.org/2000/svg">
<g clip-path="url(#clip0_1842_2557)">
<path d="M296.284 269.687C291.484 192.087 348.618 210.687 377.784 229.687C399.285 240.687 407.185 264.987 410.785 282.187C415.285 303.687 377.784 326.687 357.785 336.687C337.786 346.687 302.284 366.687 296.284 269.687Z" fill="#7AB555" fill-opacity="0.3"/>
<path d="M212.609 316.81C184.436 333.477 214.435 357.453 232.956 367.357C237.006 368.899 254.542 380.924 276.037 389.108C309.078 401.688 330.955 313.714 324.785 283.544C318.615 253.375 289.338 268.445 275.348 292.544C261.358 316.644 247.826 295.977 212.609 316.81Z" fill="#93C6E5" fill-opacity="0.5"/>
<path d="M245.842 738.748C235.449 754.013 256.517 759.066 268.35 759.685C270.788 759.501 282.626 761.439 295.565 760.466C315.455 758.97 305.539 708.798 295.156 694.869C284.774 680.941 273.434 695.655 272.066 711.316C270.699 726.977 258.834 719.666 245.842 738.748Z" fill="#93C6E5" fill-opacity="0.5"/>
<path d="M333.3 805.278C351.7 740.478 396.967 757.611 417.3 774.278C484.3 846.278 417.3 884.778 366.8 908.278C316.3 931.778 235.8 899.278 248.3 859.278C260.8 819.278 310.3 886.278 333.3 805.278Z" fill="#93C6E5" fill-opacity="0.5"/>
<path d="M-10.4189 895.106C-53.3597 818.335 15.3225 798.845 55.0313 798.697C111.03 806.98 112.632 823.463 110.864 836.8C109.097 850.137 75.8957 856.534 67.4592 890.206C59.0227 923.879 43.2572 991.07 -10.4189 895.106Z" fill="#7AB555" fill-opacity="0.3"/>
<path d="M399.244 775.388C366.828 830.607 323.965 798.859 306.586 776.082C289.207 753.306 288.159 740.961 309.717 701.462C331.276 661.962 418.983 674.515 431.711 681.462C444.438 688.408 439.765 706.364 399.244 775.388Z" fill="#7AB555" fill-opacity="0.3"/>
<path d="M202.555 811.856C204.955 763.456 271.055 754.856 297.555 787.356C363.055 891.856 230.555 903.356 193.055 906.856C155.555 910.356 199.555 872.356 202.555 811.856Z" fill="#7AB555" fill-opacity="0.3"/>
<path d="M80.8481 874.943C74.3109 847.158 129.191 823.332 157.447 814.893C169.507 810.889 201.794 808.551 208.682 837.997C215.57 867.443 116.428 927.924 103.942 922.192C91.4554 916.46 89.0197 909.673 80.8481 874.943Z" fill="#93C6E5" fill-opacity="0.5"/>
<path d="M352.705 690.264C335.172 673.265 357.857 639.96 371.392 625.432C376.973 618.957 395.977 607.36 414.534 625.388C433.091 643.417 400.554 715.524 389.991 715.465C379.428 715.406 374.622 711.514 352.705 690.264Z" fill="#93C6E5" fill-opacity="0.5"/>
<path d="M313.083 357.651C302.905 336.401 339.82 309.948 359.549 299.378C367.893 294.547 391.816 288.291 402.573 310.816C413.33 333.342 349.934 395.025 339.43 392.157C328.926 389.288 325.807 384.213 313.083 357.651Z" fill="#93C6E5" fill-opacity="0.5"/>
</g>
<defs>
<clipPath id="clip0_1842_2557">
<rect width="393" height="852" fill="white"/>
</clipPath>
</defs>
</svg>
