<svg width="393" height="852" viewBox="0 0 393 852" fill="none" xmlns="http://www.w3.org/2000/svg">
<g clip-path="url(#clip0_1842_2569)">
<path d="M413.449 496C418.521 557 377.947 696 251.151 743C88.0236 803.468 -62.6672 678 -95 804" stroke="black"/>
<path d="M416.618 506C421.69 567 401.402 696 274.607 756C120.047 829.139 -41.7472 682 -87.3936 807.5" stroke="black"/>
<path d="M423.592 509.5C428.664 570.5 423.592 711 287.287 770C129.274 838.396 -34.139 707.5 -62.668 800.5" stroke="black"/>
<path d="M440.076 517.5C445.147 578.5 433.102 713.5 306.941 783.5C159.521 865.295 -36.6748 723.5 -36.6748 800" stroke="black"/>
<path d="M406.614 293C426.946 199.481 416.857 24.1027 213.835 70.7461C-39.943 129.05 -28.4338 135.529 -49.1504 93.6693" stroke="black"/>
<path d="M415.649 277C435.982 183.481 425.893 8.10268 222.87 54.7461C-30.9072 113.05 -23.3508 120.359 -44.0674 78.5" stroke="black"/>
<path d="M424.682 261C445.015 167.481 434.925 -7.89732 231.903 38.7461C-21.8744 97.0504 -14.141 108 -43.5049 63.5" stroke="black"/>
<path d="M433.72 245C454.052 151.481 443.963 -23.8973 240.941 22.7461C-12.8371 81.0504 -7.92724 98 -44.0674 47" stroke="black"/>
<path d="M57.1378 323.196C85.5431 255.831 122.112 295.127 136.846 323.196C152.47 352.958 149.889 340.618 190.468 327.551C305.887 290.386 333.944 420.469 210.757 446.602C185.784 451.899 109.311 487.253 68.7318 470.557C28.1528 453.861 21.6312 407.402 57.1378 323.196Z" fill="#93C6E5" fill-opacity="0.5"/>
<path d="M234.772 307.485C298.848 237.377 363.934 264.03 385.582 343.697C400.734 428.434 343.008 418.295 259.305 458.128C175.602 497.962 101.279 418.295 117.154 380.634C133.029 342.973 154.676 395.119 234.772 307.485Z" fill="#7AB555" fill-opacity="0.5"/>
</g>
<defs>
<clipPath id="clip0_1842_2569">
<rect width="393" height="852" fill="white"/>
</clipPath>
</defs>
</svg>
