<svg width="393" height="852" viewBox="0 0 393 852" fill="none" xmlns="http://www.w3.org/2000/svg">
<g clip-path="url(#clip0_1842_2584)">
<path d="M-213.311 71.8818C-229.791 240.172 52.5487 207.994 298.829 113.573C946.415 -134.704 628.775 432.182 413.308 488.597" stroke="black"/>
<path d="M-192.713 25C-287.33 254.65 188.509 137.775 412.307 49.2202C751.088 -84.8336 746.3 418.776 514.878 481.104" stroke="black"/>
<path d="M-178.811 -5.56704C-306.754 261.878 275.569 95.5824 466.394 11.0396C823.696 -147.259 848.36 413.313 598.814 481.081" stroke="black"/>
<path d="M-176.56 3.76252C-210.693 267.964 371.282 -4.58252 576.082 -32.1256C1014.67 -91.1097 1006.67 403.23 729.532 478.699" stroke="black"/>
</g>
<defs>
<clipPath id="clip0_1842_2584">
<rect width="393" height="852" fill="white"/>
</clipPath>
</defs>
</svg>
